<?xml version="1.0" standalone="no"?>
<!DOCTYPE svg PUBLIC "-//W3C//DTD SVG 20010904//EN"
 "http://www.w3.org/TR/2001/REC-SVG-20010904/DTD/svg10.dtd">
<svg version="1.0" xmlns="http://www.w3.org/2000/svg"
 width="117.000000pt" height="115.000000pt" viewBox="0 0 117.000000 115.000000"
 preserveAspectRatio="xMidYMid meet">

<g transform="translate(0.000000,115.000000) scale(0.100000,-0.100000)"
fill="#000000" stroke="none">
<path d="M5 575 l0 -575 25 1 c25 0 25 0 2 9 -12 5 -22 11 -22 12 0 2 260 3
577 3 l578 0 3 539 c1 393 -1 542 -9 553 -10 11 -107 13 -580 11 -313 -2 -569
-2 -569 0 0 1 10 7 23 12 22 9 22 9 -3 9 l-25 1 0 -575z m1045 441 c0 -2 -76
-76 -170 -166 l-170 -162 0 166 0 166 170 0 c94 0 170 -2 170 -4z m-353 -333
c-2 -2 -73 -2 -158 -1 l-154 3 155 162 155 162 3 -161 c1 -88 1 -163 -1 -165z
m361 268 c9 -5 -9 -21 -60 -51 -40 -24 -77 -45 -83 -48 -5 -3 15 21 45 52 53
55 72 64 98 47z m-704 -103 c42 -46 76 -86 76 -90 0 -4 -14 -23 -31 -43 -31
-35 -32 -35 -110 -35 l-79 0 0 125 0 125 34 0 c30 0 44 -10 110 -82z m-164 27
c0 -35 -1 -35 -42 -35 l-43 0 40 35 c22 19 41 34 43 35 1 0 2 -16 2 -35z m500
-212 c0 -10 -122 -346 -127 -353 -3 -3 -39 32 -81 77 -43 45 -119 127 -171
183 l-93 100 236 0 c130 0 236 -3 236 -7z m10 -293 l0 -260 -67 37 c-38 20
-73 41 -79 47 -9 8 8 65 65 223 42 117 77 213 79 213 1 0 2 -117 2 -260z"/>
<path d="M1145 10 c-19 -8 -19 -9 3 -9 12 -1 22 4 22 9 0 6 -1 10 -2 9 -2 0
-12 -4 -23 -9z"/>
</g>
</svg>
